<svg xmlns="http://www.w3.org/2000/svg" xmlns:xlink="http://www.w3.org/1999/xlink" width="500" zoomAndPan="magnify" viewBox="0 0 375 374.999991" height="500" preserveAspectRatio="xMidYMid meet" version="1.0"><defs><clipPath id="03f863f379"><path d="M 54.140625 0 L 321 0 L 321 375 L 54.140625 375 Z M 54.140625 0 " clip-rule="nonzero"/></clipPath></defs><rect x="-37.5" width="450" fill="#ffffff" y="-37.499999" height="449.999989" fill-opacity="1"/><rect x="-37.5" width="450" fill="#d7f7b8" y="-37.499999" height="449.999989" fill-opacity="1"/><g clip-path="url(#03f863f379)"><path fill="#202223" d="M 204.054688 354.054688 C 204.648438 342.464844 206.394531 330.296875 209.867188 319.300781 C 211.039062 315.828125 212.191406 312.332031 213.363281 309.4375 C 218.007812 299.589844 223.820312 290.320312 230.210938 281.648438 C 228.464844 285.699219 226.71875 289.746094 225.570312 294.390625 C 230.789062 289.746094 237.179688 287.425781 245.894531 286.273438 C 256.949219 285.121094 268.558594 287.425781 279.59375 286.273438 C 305.753906 283.375 320.859375 259.042969 320.859375 235.304688 C 320.859375 206.902344 297.617188 198.804688 287.15625 170.996094 C 291.800781 180.265625 298.191406 188.363281 306.332031 195.328125 C 295.292969 176.195312 282.511719 155.929688 283.089844 127.527344 L 310.976562 136.816406 C 293.546875 113.632812 280.765625 86.996094 273.203125 58.613281 C 264.488281 86.402344 251.707031 112.484375 234.28125 135.664062 L 256.351562 128.699219 L 262.167969 113.632812 L 260.421875 127.527344 C 257.523438 155.355469 264.488281 173.890625 271.476562 188.363281 C 276.695312 201.105469 282.511719 210.375 281.9375 219.644531 C 281.9375 227.183594 279.019531 232.980469 274.949219 237.605469 C 280.191406 236.453125 284.257812 234.132812 288.902344 231.234375 C 277.867188 243.976562 260.421875 248.046875 244.742188 243.402344 C 241.824219 242.25 238.925781 241.078125 236.601562 239.351562 C 212.785156 226.035156 198.832031 186.636719 194.1875 162.878906 L 201.15625 177.367188 C 199.984375 168.671875 198.832031 159.402344 198.832031 148.964844 L 198.832031 52.222656 L 222.074219 62.070312 C 208.71875 47.023438 197.085938 26.164062 187.796875 0.101562 C 177.914062 26.164062 166.859375 47.023438 152.925781 62.070312 L 176.167969 52.222656 L 188.949219 47.023438 L 176.167969 57.445312 L 176.167969 148.964844 C 175.589844 200.53125 157.570312 228.914062 138.992188 239.351562 C 136.074219 241.078125 133.15625 242.25 130.855469 243.402344 C 115.152344 248.046875 97.707031 243.976562 86.671875 231.234375 C 90.761719 234.132812 95.40625 236.453125 100.050781 237.605469 C 95.980469 232.980469 93.0625 227.1875 93.0625 219.644531 C 92.488281 210.375 98.304688 201.105469 104.117188 188.363281 C 110.507812 173.890625 117.476562 155.355469 114.578125 127.527344 L 113.40625 113.632812 L 118.628906 128.699219 L 140.71875 135.664062 C 123.867188 112.484375 110.507812 86.402344 102.371094 58.617188 C 94.808594 87 81.453125 113.636719 64.003906 136.816406 L 91.910156 127.527344 C 93.0625 155.929688 79.703125 176.195312 69.246094 195.328125 C 76.808594 188.363281 83.199219 180.265625 87.84375 170.996094 C 77.382812 198.804688 54.140625 206.902344 54.140625 235.304688 C 54.140625 259.042969 69.839844 283.375 95.40625 286.273438 C 106.441406 287.425781 118.070312 285.121094 129.683594 286.273438 C 137.820312 287.425781 144.785156 289.746094 150.027344 294.390625 C 148.28125 289.746094 146.535156 285.699219 144.789062 281.648438 C 151.773438 290.320312 156.992188 299.589844 161.636719 309.4375 C 163.382812 312.332031 164.554688 315.828125 165.132812 319.300781 L 165.707031 319.300781 C 169.199219 330.296875 170.351562 342.464844 171.523438 354.054688 L 138.992188 354.054688 L 138.992188 374.914062 L 236.027344 374.914062 L 236.027344 354.054688 Z M 204.054688 354.054688 " fill-opacity="1" fill-rule="evenodd"/></g></svg>